<?xml version="1.0" encoding="utf-8"?>
<!-- Generator: Adobe Illustrator 28.2.0, SVG Export Plug-In . SVG Version: 6.00 Build 0)  -->
<svg version="1.1" id="Adobe_Folder_2020" xmlns="http://www.w3.org/2000/svg" xmlns:xlink="http://www.w3.org/1999/xlink" x="0px"
	 y="0px" viewBox="0 0 240 210" style="enable-background:new 0 0 240 210;" xml:space="preserve">
<style type="text/css">
	.st0{fill:#261300;}
	.st1{fill-rule:evenodd;clip-rule:evenodd;fill:#FFE6CC;}
	.st2{fill:#FF7C00;}
</style>
<g id="Illustrator">
	<path class="st0" d="M232.5,52.5c0-8.3-6.7-15-15-15H7.5v150c0,8.3,6.7,15,15,15l0,0h195c8.3,0,15-6.7,15-15l0,0V52.5z"/>
	<path class="st1" d="M96.1,137.9l-5.5,21c-0.1,0.6-0.3,0.7-1,0.7H79.3c-0.7,0-0.8-0.2-0.7-1l19.9-69.7c0.5-1.9,0.7-3.9,0.7-5.8
		c0-0.5,0.2-0.7,0.6-0.7h14.7c0.5,0,0.7,0.1,0.8,0.7l22.3,75.6c0.1,0.6,0,0.9-0.6,0.9h-11.6c-0.6,0-0.9-0.1-1-0.6l-5.8-21.1
		L96.1,137.9z M115.6,126.5c-2-7.7-6.6-24.7-8.3-32.9h-0.1c-1.5,8.2-5.2,22-8.1,32.9H115.6z M147.1,87.6c0.1-4,3.5-7,7.4-6.9
		c3.7,0.1,6.8,3.1,6.9,6.9c0,4.6-3,7.2-7.3,7.2S147.1,92.2,147.1,87.6z M147.9,103.5c0-0.6,0.2-0.8,0.8-0.8h11
		c0.6,0,0.8,0.2,0.8,0.8v55.3c0,0.6-0.1,0.8-0.8,0.8h-10.9c-0.7,0-0.9-0.4-0.9-0.9L147.9,103.5z"/>
	<path id="Path_4" class="st2" d="M217.5,30h-79.9c-1,0-2-0.4-2.6-1.1L111.8,5.6C108.3,2,103.6,0,98.6,0H22.5C10.1,0,0,10.1,0,22.5
		v165C0,199.9,10.1,210,22.5,210h195c12.4,0,22.5-10.1,22.5-22.5v-135C240,40.1,229.9,30,217.5,30z M232.5,187.5c0,8.3-6.7,15-15,15
		l0,0h-195c-8.3,0-15-6.7-15-15l0,0v-150h210c8.3,0,15,6.7,15,15V187.5z"/>
</g>
</svg>
