<?xml version="1.0" encoding="utf-8"?>
<!-- Generator: Adobe Illustrator 28.2.0, SVG Export Plug-In . SVG Version: 6.00 Build 0)  -->
<svg version="1.1" id="Adobe_Folder_2020" xmlns="http://www.w3.org/2000/svg" xmlns:xlink="http://www.w3.org/1999/xlink" x="0px"
	 y="0px" viewBox="0 0 240 210" style="enable-background:new 0 0 240 210;" xml:space="preserve">
<style type="text/css">
	.st0{fill:#2E1513;}
	.st1{fill:#EA7700;}
	.st2{enable-background:new    ;}
	.st3{fill:#FFFFFF;}
</style>
<g id="Premiere_Por">
	<path class="st0" d="M232.5,52.5c0-8.3-6.7-15-15-15H7.5v150c0,8.3,6.7,15,15,15l0,0h195c8.3,0,15-6.7,15-15l0,0V52.5z"/>
	<path id="Path_4" class="st1" d="M217.5,30h-79.9c-1,0-2-0.4-2.6-1.1L111.8,5.6C108.3,2,103.6,0,98.6,0H22.5C10.1,0,0,10.1,0,22.5
		v165C0,199.9,10.1,210,22.5,210h195c12.4,0,22.5-10.1,22.5-22.5v-135C240,40.1,229.9,30,217.5,30z M232.5,187.5c0,8.3-6.7,15-15,15
		l0,0h-195c-8.3,0-15-6.7-15-15l0,0v-150h210c8.3,0,15,6.7,15,15V187.5z"/>
	<g class="st2">
		<path class="st3" d="M21.9,145.6V91.9h36.8v9.1h-26v12.7h22.4v9.1H32.7v22.8H21.9z"/>
		<path class="st3" d="M66.6,101.4v-9.5h10.3v9.5H66.6z M66.6,145.6v-38.9h10.3v38.9H66.6z"/>
		<path class="st3" d="M85.5,148.2l11.8,1.4c0.2,1.4,0.6,2.3,1.4,2.8c1,0.7,2.5,1.1,4.6,1.1c2.7,0,4.7-0.4,6-1.2
			c0.9-0.5,1.6-1.4,2.1-2.6c0.3-0.9,0.5-2.4,0.5-4.7v-5.7c-3.1,4.2-7,6.3-11.6,6.3c-5.2,0-9.4-2.2-12.4-6.6c-2.4-3.5-3.6-7.8-3.6-13
			c0-6.5,1.6-11.5,4.7-14.9c3.1-3.4,7-5.2,11.7-5.2c4.8,0,8.8,2.1,11.9,6.3v-5.5h9.6v34.9c0,4.6-0.4,8-1.1,10.3
			c-0.8,2.3-1.8,4.1-3.2,5.3c-1.4,1.3-3.2,2.3-5.5,3c-2.3,0.7-5.2,1.1-8.7,1.1c-6.6,0-11.3-1.1-14-3.4c-2.8-2.3-4.1-5.1-4.1-8.6
			C85.4,149.1,85.5,148.6,85.5,148.2z M94.7,125.3c0,4.1,0.8,7.1,2.4,9.1s3.6,2.9,5.9,2.9c2.5,0,4.6-1,6.4-2.9
			c1.7-2,2.6-4.9,2.6-8.7c0-4-0.8-7-2.5-9c-1.7-2-3.8-2.9-6.3-2.9c-2.5,0-4.5,1-6.1,2.9C95.5,118.5,94.7,121.4,94.7,125.3z"/>
		<path class="st3" d="M130.5,106.7h9.5v5.3c3.4-4.1,7.4-6.2,12.1-6.2c2.5,0,4.7,0.5,6.5,1.5s3.3,2.6,4.5,4.7
			c1.7-2.1,3.6-3.6,5.5-4.7s4.1-1.5,6.3-1.5c2.9,0,5.3,0.6,7.3,1.7c2,1.2,3.5,2.9,4.4,5.1c0.7,1.7,1.1,4.3,1.1,8.1v24.9h-10.3v-22.2
			c0-3.9-0.4-6.3-1.1-7.5c-1-1.5-2.4-2.2-4.4-2.2c-1.4,0-2.8,0.4-4.1,1.3c-1.3,0.9-2.2,2.2-2.7,3.9s-0.8,4.4-0.8,8v18.7H154v-21.3
			c0-3.8-0.2-6.2-0.5-7.3s-0.9-1.9-1.7-2.5c-0.8-0.5-1.8-0.8-3.1-0.8c-1.6,0-3,0.4-4.3,1.3s-2.2,2.1-2.7,3.7c-0.5,1.6-0.8,4.3-0.8,8
			v18.9h-10.3V106.7z"/>
		<path class="st3" d="M204.7,118.6l-9.3-1.7c1-3.8,2.9-6.5,5.4-8.3s6.4-2.7,11.4-2.7c4.6,0,8,0.5,10.3,1.6s3.8,2.5,4.7,4.1
			c0.9,1.7,1.4,4.7,1.4,9.2l-0.1,12c0,3.4,0.2,5.9,0.5,7.6c0.3,1.6,0.9,3.4,1.8,5.2h-10.2c-0.3-0.7-0.6-1.7-1-3
			c-0.2-0.6-0.3-1-0.4-1.2c-1.8,1.7-3.6,3-5.6,3.8c-2,0.9-4.1,1.3-6.4,1.3c-4,0-7.2-1.1-9.5-3.3c-2.3-2.2-3.5-4.9-3.5-8.2
			c0-2.2,0.5-4.2,1.6-5.9c1-1.7,2.5-3,4.4-4c1.9-0.9,4.6-1.7,8.2-2.4c4.8-0.9,8.1-1.7,10-2.5v-1c0-2-0.5-3.4-1.5-4.2
			c-1-0.8-2.8-1.3-5.5-1.3c-1.8,0-3.3,0.4-4.3,1.1S205.3,116.8,204.7,118.6z M218.4,126.9c-1.3,0.4-3.4,1-6.3,1.6s-4.7,1.2-5.6,1.8
			c-1.3,1-2,2.2-2,3.6c0,1.4,0.5,2.7,1.6,3.7c1.1,1.1,2.4,1.6,4.1,1.6c1.9,0,3.6-0.6,5.3-1.8c1.2-0.9,2.1-2.1,2.5-3.4
			c0.3-0.9,0.4-2.6,0.4-5V126.9z"/>
	</g>
</g>
</svg>
