<?xml version="1.0" encoding="utf-8"?>
<!-- Generator: Adobe Illustrator 28.2.0, SVG Export Plug-In . SVG Version: 6.00 Build 0)  -->
<svg version="1.1" id="Adobe_Folder_2020" xmlns="http://www.w3.org/2000/svg" xmlns:xlink="http://www.w3.org/1999/xlink" x="0px"
	 y="0px" viewBox="0 0 240 210" style="enable-background:new 0 0 240 210;" xml:space="preserve">
<style type="text/css">
	.st0{fill:#300E09;}
	.st1{fill:#E44D26;}
	.st2{enable-background:new    ;}
	.st3{fill:#FFFFFF;}
</style>
<g>
	<path class="st0" d="M232.5,52.5c0-8.3-6.7-15-15-15H7.5v150c0,8.3,6.7,15,15,15l0,0h195c8.3,0,15-6.7,15-15l0,0V52.5z"/>
	<path id="Path_4_2_" class="st1" d="M217.5,30h-79.9c-1,0-2-0.4-2.6-1.1L111.8,5.6C108.3,2,103.6,0,98.6,0H22.5
		C10.1,0,0,10.1,0,22.5v165C0,199.9,10.1,210,22.5,210h195c12.4,0,22.5-10.1,22.5-22.5v-135C240,40.1,229.9,30,217.5,30z
		 M232.5,187.5c0,8.3-6.7,15-15,15l0,0h-195c-8.3,0-15-6.7-15-15l0,0v-150h210c8.3,0,15,6.7,15,15V187.5z"/>
	<g class="st2">
		<path class="st3" d="M28.2,147V93.3H39v21.1h21.2V93.3h10.8V147H60.3v-23.5H39V147H28.2z"/>
		<path class="st3" d="M93.4,147v-44.6H77.5v-9.1h42.7v9.1h-15.9V147H93.4z"/>
		<path class="st3" d="M126,147V93.3h16.2L152,130l9.6-36.6h16.3V147h-10.1v-42.3L157.2,147h-10.4l-10.6-42.3V147H126z"/>
		<path class="st3" d="M188,147V93.8h10.8V138h27v9H188z"/>
	</g>
</g>
</svg>
