<?xml version="1.0" encoding="utf-8"?>
<!-- Generator: Adobe Illustrator 28.2.0, SVG Export Plug-In . SVG Version: 6.00 Build 0)  -->
<svg version="1.1" id="Adobe_Folder_2020" xmlns="http://www.w3.org/2000/svg" xmlns:xlink="http://www.w3.org/1999/xlink" x="0px"
	 y="0px" viewBox="0 0 240 210" style="enable-background:new 0 0 240 210;" xml:space="preserve">
<style type="text/css">
	.st0{fill:#0D2B35;}
	.st1{fill:#2F9DD9;}
	.st2{enable-background:new    ;}
	.st3{fill:#FFFFFF;}
</style>
<g>
	<path class="st0" d="M232.5,52.5c0-8.3-6.7-15-15-15H7.5v150c0,8.3,6.7,15,15,15l0,0h195c8.3,0,15-6.7,15-15l0,0V52.5z"/>
	<path id="Path_4_4_" class="st1" d="M217.5,30h-79.9c-1,0-2-0.4-2.6-1.1L111.8,5.6C108.3,2,103.6,0,98.6,0H22.5
		C10.1,0,0,10.1,0,22.5v165C0,199.9,10.1,210,22.5,210h195c12.4,0,22.5-10.1,22.5-22.5v-135C240,40.1,229.9,30,217.5,30z
		 M232.5,187.5c0,8.3-6.7,15-15,15l0,0h-195c-8.3,0-15-6.7-15-15l0,0v-150h210c8.3,0,15,6.7,15,15V187.5z"/>
	<g class="st2">
		<path class="st3" d="M81.9,129.8l11.9,3.8c-1.8,6.6-4.9,11.6-9.1,14.8c-4.2,3.2-9.6,4.8-16.2,4.8c-8.1,0-14.7-2.8-19.9-8.3
			c-5.2-5.5-7.8-13.1-7.8-22.6c0-10.1,2.6-18,7.8-23.6c5.2-5.6,12.1-8.4,20.6-8.4c7.4,0,13.5,2.2,18.1,6.6c2.8,2.6,4.8,6.3,6.2,11.2
			L81.5,111c-0.7-3.2-2.2-5.6-4.5-7.5c-2.3-1.8-5.1-2.7-8.3-2.7c-4.5,0-8.2,1.6-11,4.9c-2.8,3.2-4.2,8.5-4.2,15.7
			c0,7.7,1.4,13.2,4.2,16.4c2.8,3.3,6.4,4.9,10.8,4.9c3.3,0,6.1-1,8.4-3.1C79.2,137.5,80.9,134.3,81.9,129.8z"/>
		<path class="st3" d="M99.3,132.4l12-1.2c0.7,4,2.2,7,4.4,8.8c2.2,1.9,5.2,2.8,8.9,2.8c4,0,6.9-0.8,8.9-2.5c2-1.7,3-3.6,3-5.9
			c0-1.4-0.4-2.7-1.3-3.7c-0.8-1-2.3-1.9-4.4-2.6c-1.4-0.5-4.7-1.4-9.8-2.7c-6.6-1.6-11.2-3.6-13.9-6c-3.7-3.3-5.6-7.4-5.6-12.2
			c0-3.1,0.9-6,2.6-8.7c1.8-2.7,4.3-4.8,7.6-6.2c3.3-1.4,7.3-2.1,12-2.1c7.6,0,13.4,1.7,17.2,5c3.9,3.3,5.9,7.8,6.1,13.4l-12.3,0.5
			c-0.5-3.1-1.7-5.4-3.4-6.7c-1.7-1.4-4.3-2.1-7.8-2.1c-3.6,0-6.4,0.7-8.4,2.2c-1.3,0.9-2,2.2-2,3.8c0,1.4,0.6,2.7,1.8,3.7
			c1.5,1.3,5.3,2.7,11.3,4.1c6,1.4,10.4,2.9,13.3,4.4c2.9,1.5,5.1,3.6,6.7,6.2c1.6,2.6,2.4,5.8,2.4,9.7c0,3.5-1,6.8-2.9,9.8
			c-1.9,3-4.7,5.3-8.2,6.8c-3.5,1.5-8,2.2-13.2,2.2c-7.7,0-13.6-1.8-17.7-5.3C102.6,144.4,100.1,139.2,99.3,132.4z"/>
		<path class="st3" d="M154,132.4l12-1.2c0.7,4,2.2,7,4.4,8.8c2.2,1.9,5.2,2.8,8.9,2.8c4,0,6.9-0.8,8.9-2.5c2-1.7,3-3.6,3-5.9
			c0-1.4-0.4-2.7-1.3-3.7c-0.8-1-2.3-1.9-4.4-2.6c-1.4-0.5-4.7-1.4-9.8-2.7c-6.6-1.6-11.2-3.6-13.9-6c-3.7-3.3-5.6-7.4-5.6-12.2
			c0-3.1,0.9-6,2.6-8.7c1.8-2.7,4.3-4.8,7.6-6.2c3.3-1.4,7.3-2.1,12-2.1c7.6,0,13.4,1.7,17.2,5c3.9,3.3,5.9,7.8,6.1,13.4l-12.3,0.5
			c-0.5-3.1-1.7-5.4-3.4-6.7c-1.7-1.4-4.3-2.1-7.8-2.1c-3.6,0-6.4,0.7-8.4,2.2c-1.3,0.9-2,2.2-2,3.8c0,1.4,0.6,2.7,1.8,3.7
			c1.5,1.3,5.3,2.7,11.3,4.1c6,1.4,10.4,2.9,13.3,4.4c2.9,1.5,5.1,3.6,6.7,6.2c1.6,2.6,2.4,5.8,2.4,9.7c0,3.5-1,6.8-2.9,9.8
			c-1.9,3-4.7,5.3-8.2,6.8c-3.5,1.5-8,2.2-13.2,2.2c-7.7,0-13.6-1.8-17.7-5.3C157.3,144.4,154.9,139.2,154,132.4z"/>
	</g>
</g>
</svg>
